<svg width="49" height="56" viewBox="0 0 49 56" fill="none" xmlns="http://www.w3.org/2000/svg">
<path d="M28.7724 4.57311C26.0323 10.0535 31.6801 22.4093 41.1034 14.1639C52.0643 4.57316 33.5677 -5.01769 28.7724 4.57311Z" fill="#8B66C8"/>
<path d="M0 38.1414C0 36.0059 0 15.8772 10.2759 12.7941C13.7012 11.7664 18.1837 12.0551 20.5518 12.7942C25.7215 14.4077 29.3605 22.2855 24.6621 25.8099C19.1817 29.9206 15.0713 29.2352 14.3862 34.7157C13.7011 47.0467 23.2919 42.9364 25.3471 41.5662C25.3471 41.5662 30.1425 38.1414 34.9379 31.2908C40.1402 23.859 51.5162 29.2357 47.9539 38.1414C45.2137 44.992 39.4592 51.4315 24.6621 55.2678C9.86485 59.1041 0 47.0467 0 38.1414V38.1414Z" fill="#8B66C8"/>
</svg>
